<svg xmlns="http://www.w3.org/2000/svg" width="21" height="20" viewBox="0 0 21 20" id="stats"><path fill="#000" fill-rule="evenodd" d="M374.55 657c0 .552-.47 1-1.05 1-.58 0-1.05-.448-1.05-1v-14c0-.552.47-1 1.05-1 .58 0 1.05.448 1.05 1v14zm0-17h-2.1c-1.16 0-2.1.895-2.1 2v16c0 1.105.94 2 2.1 2h2.1c1.16 0 2.1-.895 2.1-2v-16c0-1.105-.94-2-2.1-2zm-7.35 17c0 .552-.47 1-1.05 1-.58 0-1.05-.448-1.05-1v-10c0-.552.47-1 1.05-1 .58 0 1.05.448 1.05 1v10zm0-13h-2.1c-1.16 0-2.1.895-2.1 2v12c0 1.105.94 2 2.1 2h2.1c1.16 0 2.1-.895 2.1-2v-12c0-1.105-.94-2-2.1-2zm14.7 13c0 .552-.47 1-1.05 1-.58 0-1.05-.448-1.05-1v-4c0-.552.47-1 1.05-1 .58 0 1.05.448 1.05 1v4zm0-7h-2.1c-1.16 0-2.1.895-2.1 2v6c0 1.105.94 2 2.1 2h2.1c1.16 0 2.1-.895 2.1-2v-6c0-1.105-.94-2-2.1-2z" transform="translate(-363 -640)"></path></svg>